<?xml version="1.0" encoding="UTF-8"?><svg xmlns="http://www.w3.org/2000/svg" width="1000" height="1000" xmlns:xlink="http://www.w3.org/1999/xlink" viewBox="0 0 1000 1000"><defs><filter id="drop-shadow-1" filterUnits="userSpaceOnUse"><feOffset dx="7" dy="7"/><feGaussianBlur result="blur" stdDeviation="50"/><feFlood flood-color="#000" flood-opacity=".5"/><feComposite in2="blur" operator="in"/><feComposite in="SourceGraphic"/></filter></defs><g id="Background"><rect x="0" y="0" width="166.67" height="1000" fill="#df3454"/><rect x="166.67" y="0" width="166.67" height="1000" fill="#f08346"/><rect x="333.33" y="0" width="166.67" height="1000" fill="#fd4"/><rect x="500" y="0" width="166.67" height="1000" fill="#8fc584"/><rect x="666.67" y="0" width="166.67" height="1000" fill="#1883b8"/><rect x="833.33" y="0" width="166.67" height="1000" fill="#764b97"/></g><g id="Image"><g fill="none" filter="url(#drop-shadow-1)"><path d="m659.69,809.53l-122.12,29.59c-61.81,18.69-132.75-4.48-170.68-56.93-3.02-4.08-5.86-8.33-8.49-12.73s-5.06-8.96-7.27-13.66-4.2-9.55-5.96-14.53-3.28-10.1-4.55-15.35l-7.61-31.43-74.45-307.3-48.57-54.78-48.57-54.78,508.33-123.16,7.82,64.65,97.29,401.59c1.27,5.25,2.26,10.5,2.98,15.73s1.17,10.46,1.35,15.65c.19,5.19.11,10.36-.22,15.47-.33,5.12-.91,10.19-1.73,15.2-.82,5.01-1.89,9.96-3.18,14.84-1.3,4.87-2.83,9.67-4.58,14.38-1.75,4.7-3.73,9.32-5.91,13.82-2.19,4.5-4.59,8.9-7.19,13.17-2.61,4.27-5.41,8.42-8.42,12.42s-6.2,7.87-9.58,11.58-6.95,7.27-10.69,10.65c-3.74,3.38-7.66,6.6-11.74,9.62-4.08,3.02-8.33,5.86-12.73,8.49-4.4,2.63-8.96,5.06-13.66,7.27-4.7,2.21-9.55,4.2-14.53,5.96-4.98,1.76-10.1,3.28-15.35,4.55Z" fill="#c7e4ed" stroke="#88c0d0" stroke-linecap="round" stroke-linejoin="round" stroke-width="20"/></g><line x1="578.64" y1="243.09" x2="628.1" y2="231.11" fill="none" stroke="#88c0d0" stroke-linecap="round" stroke-linejoin="round" stroke-width="20"/><line x1="595.24" y1="311.61" x2="644.7" y2="299.63" fill="none" stroke="#88c0d0" stroke-linecap="round" stroke-linejoin="round" stroke-width="20"/><line x1="611.84" y1="380.13" x2="661.3" y2="368.15" fill="none" stroke="#88c0d0" stroke-linecap="round" stroke-linejoin="round" stroke-width="20"/><line x1="628.44" y1="448.64" x2="677.9" y2="436.66" fill="none" stroke="#88c0d0" stroke-linecap="round" stroke-linejoin="round" stroke-width="20"/><line x1="645.04" y1="517.16" x2="694.5" y2="505.18" fill="none" stroke="#88c0d0" stroke-linecap="round" stroke-linejoin="round" stroke-width="20"/><line x1="661.64" y1="585.68" x2="711.1" y2="573.69" fill="none" stroke="#88c0d0" stroke-linecap="round" stroke-linejoin="round" stroke-width="20"/><line x1="678.24" y1="654.19" x2="727.7" y2="642.21" fill="none" stroke="#88c0d0" stroke-linecap="round" stroke-linejoin="round" stroke-width="20"/><line x1="578.64" y1="243.09" x2="678.24" y2="654.19" fill="none" stroke="#88c0d0" stroke-linecap="round" stroke-linejoin="round" stroke-width="20"/><path d="m456.86,448.47c-5.61,9.2-14.73,16.26-26.03,19-11.3,2.74-22.64.64-31.84-4.98" fill="none" stroke="#88c0d0" stroke-linecap="round" stroke-linejoin="round" stroke-width="20"/><path d="m733.38,664.64c-.24,3.58-.65,7.2-1.22,10.75-.58,3.5-1.33,7.03-2.25,10.47-.91,3.43-2,6.85-3.24,10.18-1.24,3.31-2.65,6.6-4.2,9.8-1.54,3.18-3.25,6.31-5.1,9.34-1.85,3.02-3.85,5.99-5.97,8.81-2.12,2.84-4.4,5.6-6.8,8.22-2.39,2.61-4.93,5.16-7.56,7.54-2.65,2.39-5.44,4.67-8.3,6.79-2.88,2.13-5.9,4.15-8.98,6-3.1,1.86-6.35,3.59-9.63,5.13-3.34,1.57-6.79,2.99-10.28,4.22-3.55,1.24-7.22,2.33-10.92,3.23l-123.36,29.89-1.22.37c-1.8.55-3.64,1.05-5.48,1.5-42.57,10.32-89.83-6.74-114.95-41.46l-.32-.43c-2.13-2.88-4.15-5.9-5.99-8.98-1.86-3.11-3.59-6.35-5.15-9.63-1.56-3.34-2.98-6.8-4.2-10.29-1.26-3.55-2.35-7.22-3.24-10.91l-18.89-77.98h365.54c.35,1.83.65,3.66.9,5.48.5,3.66.82,7.38.95,11.07.14,3.64.07,7.31-.15,10.91Z" fill="#88c0d0" stroke="#88c0d0" stroke-linecap="round" stroke-linejoin="round" stroke-width="20"/><circle cx="522.02" cy="403.32" r="19.81" fill="#88c0d0" stroke="#88c0d0" stroke-linecap="round" stroke-linejoin="round" stroke-width="20"/><circle cx="512.48" cy="397.51" r="12.79" fill="#fff"/><circle cx="345.73" cy="446.04" r="19.81" fill="#88c0d0" stroke="#88c0d0" stroke-linecap="round" stroke-linejoin="round" stroke-width="20"/><circle cx="336.19" cy="440.22" r="12.79" fill="#fff"/></g></svg>