<?xml version="1.0" encoding="UTF-8" standalone="yes"?><svg xmlns="http://www.w3.org/2000/svg" width="1000" height="1000" viewBox="0 0 1000 1000" version="1.2" baseProfile="tiny-ps"><title>Mandaris</title><desc>A smiling beaker</desc><path d="m661.79,810.84l-122.63,29.71c-62.07,18.77-133.31-4.5-171.4-57.17-3.04-4.1-5.89-8.36-8.53-12.78-2.64-4.42-5.08-8.99-7.31-13.72-2.22-4.72-4.22-9.59-5.98-14.59s-3.29-10.15-4.57-15.42l-7.65-31.56-74.77-308.6-48.77-55.01-48.77-55.01,510.48-123.68,7.85,64.92,97.7,403.28c1.28,5.27,2.27,10.54,2.99,15.8s1.17,10.5,1.36,15.72c.19,5.21.11,10.4-.22,15.54s-.91,10.23-1.74,15.27-1.89,10-3.19,14.9c-1.3,4.89-2.84,9.71-4.6,14.44-1.76,4.72-3.74,9.36-5.94,13.88-2.2,4.52-4.61,8.94-7.23,13.23s-5.44,8.45-8.45,12.48-6.23,7.91-9.62,11.63c-3.4,3.73-6.98,7.3-10.73,10.69-3.76,3.4-7.69,6.62-11.79,9.66-4.1,3.04-8.36,5.89-12.78,8.53s-8.99,5.08-13.72,7.31c-4.72,2.22-9.59,4.22-14.59,5.98s-10.15,3.29-15.42,4.57Z" fill="#c7e4ed" stroke="#88c0d0" stroke-linecap="round" stroke-linejoin="round" stroke-width="20"></path><line x1="580.4" y1="242.01" x2="630.07" y2="229.98" fill="none" stroke="#88c0d0" stroke-linecap="round" stroke-linejoin="round" stroke-width="20"></line><line x1="597.07" y1="310.82" x2="646.74" y2="298.78" fill="none" stroke="#88c0d0" stroke-linecap="round" stroke-linejoin="round" stroke-width="20"></line><line x1="613.74" y1="379.62" x2="663.41" y2="367.59" fill="none" stroke="#88c0d0" stroke-linecap="round" stroke-linejoin="round" stroke-width="20"></line><line x1="630.41" y1="448.43" x2="680.08" y2="436.39" fill="none" stroke="#88c0d0" stroke-linecap="round" stroke-linejoin="round" stroke-width="20"></line><line x1="647.08" y1="517.23" x2="696.75" y2="505.2" fill="none" stroke="#88c0d0" stroke-linecap="round" stroke-linejoin="round" stroke-width="20"></line><line x1="663.75" y1="586.04" x2="713.42" y2="574.01" fill="none" stroke="#88c0d0" stroke-linecap="round" stroke-linejoin="round" stroke-width="20"></line><line x1="680.42" y1="654.85" x2="730.09" y2="642.81" fill="none" stroke="#88c0d0" stroke-linecap="round" stroke-linejoin="round" stroke-width="20"></line><line x1="580.4" y1="242.01" x2="680.42" y2="654.85" fill="none" stroke="#88c0d0" stroke-linecap="round" stroke-linejoin="round" stroke-width="20"></line><path d="m458.1,448.25c-5.64,9.24-14.8,16.33-26.14,19.08-11.35,2.75-22.74.64-31.98-5" fill="none" stroke="#263238" stroke-linecap="round" stroke-linejoin="round" stroke-width="20"></path><path d="m735.79,665.34c-.24,3.6-.65,7.23-1.23,10.79-.58,3.51-1.33,7.06-2.26,10.52-.92,3.44-2.01,6.88-3.25,10.22-1.25,3.32-2.66,6.63-4.22,9.84-1.54,3.19-3.27,6.34-5.12,9.38-1.85,3.04-3.86,6.01-5.99,8.85-2.13,2.85-4.42,5.63-6.83,8.26-2.4,2.62-4.96,5.19-7.59,7.57-2.66,2.4-5.46,4.69-8.33,6.82-2.89,2.14-5.93,4.17-9.02,6.02-3.11,1.87-6.38,3.61-9.67,5.15-3.35,1.58-6.82,3-10.32,4.24-3.57,1.25-7.25,2.34-10.97,3.24l-123.88,30.02-1.23.37c-1.81.55-3.65,1.06-5.51,1.51-42.75,10.36-90.21-6.76-115.43-41.64l-.32-.43c-2.14-2.89-4.17-5.93-6.01-9.02-1.87-3.12-3.61-6.38-5.17-9.67-1.57-3.35-2.99-6.83-4.22-10.33-1.27-3.56-2.36-7.25-3.26-10.96l-18.97-78.31h367.09c.35,1.84.65,3.67.91,5.51.5,3.68.83,7.42.95,11.11.14,3.65.07,7.34-.15,10.96Z" fill="#88c0d0" stroke="#88c0d0" stroke-linecap="round" stroke-linejoin="round" stroke-width="20"></path><circle cx="523.54" cy="402.92" r="19.9" fill="#263238" stroke="#263238" stroke-linecap="round" stroke-linejoin="round" stroke-width="20"></circle><circle cx="513.96" cy="397.07" r="12.84" fill="#fff"></circle><circle cx="346.51" cy="445.81" r="19.9" fill="#263238" stroke="#263238" stroke-linecap="round" stroke-linejoin="round" stroke-width="20"></circle><circle cx="336.92" cy="439.96" r="12.84" fill="#fff"></circle></svg>