<?xml version="1.0" encoding="UTF-8" standalone="yes"?><svg xmlns="http://www.w3.org/2000/svg" width="640.49" height="713.92" viewBox="0 0 640.49 713.92" version="1.2" baseProfile="tiny-ps"><title>Mandaris</title><desc>A smiling beaker</desc><g id="Image"><path d="M640.38,509.36c-.2-5.57-.68-11.19-1.44-16.72-.77-5.61-1.85-11.26-3.18-16.79l-97.57-402.71-7.78-64.34c-.35-2.84-1.88-5.39-4.23-7.02-2.35-1.62-5.28-2.17-8.05-1.5L7.64,123.96c-3.41.82-6.13,3.38-7.18,6.72-1.05,3.35-.27,7,2.06,9.63l95.89,108.16,81.83,337.74c1.34,5.54,2.98,11.05,4.86,16.38,1.85,5.27,3.99,10.49,6.36,15.53,2.34,4.97,4.96,9.88,7.78,14.6,2.77,4.64,5.81,9.19,9.04,13.55,19.58,27.06,48.57,48,81.63,58.96,17.46,5.78,35.73,8.69,53.83,8.69,15.9,0,31.66-2.24,46.63-6.74l122.37-29.64c5.53-1.34,11.04-2.98,16.38-4.86,5.27-1.86,10.49-4,15.53-6.37,4.97-2.33,9.88-4.95,14.59-7.77,4.67-2.79,9.24-5.84,13.6-9.08,4.33-3.2,8.55-6.66,12.54-10.27,3.97-3.59,7.81-7.42,11.42-11.38,3.58-3.93,7.02-8.09,10.23-12.37,3.19-4.25,6.21-8.72,8.99-13.27,2.77-4.54,5.35-9.28,7.68-14.06,2.33-4.81,4.46-9.77,6.31-14.76,1.87-5.02,3.52-10.18,4.89-15.36,1.39-5.2,2.53-10.54,3.4-15.85.88-5.37,1.5-10.83,1.85-16.24.35-5.48.43-11.04.23-16.54ZM620.19,524.62c-.3,4.76-.85,9.56-1.62,14.29-.77,4.67-1.77,9.36-2.99,13.94-1.21,4.56-2.66,9.1-4.31,13.52-1.63,4.39-3.51,8.77-5.56,13-2.05,4.21-4.33,8.38-6.77,12.39-2.44,4.01-5.11,7.94-7.92,11.69-2.82,3.76-5.85,7.43-9.01,10.89-3.17,3.49-6.55,6.86-10.05,10.01-3.51,3.18-7.22,6.22-11.03,9.05-3.83,2.84-7.86,5.52-11.96,7.98-4.14,2.48-8.46,4.78-12.84,6.84-4.42,2.08-9.02,3.96-13.66,5.6-4.71,1.66-9.57,3.1-14.44,4.28l-122.64,29.71c-.18.04-.36.09-.54.15-28.15,8.51-59.64,7.9-88.65-1.72-29.12-9.65-54.6-28.03-71.75-51.74-.02-.03-.05-.06-.07-.09-2.85-3.84-5.53-7.87-7.98-11.96-2.48-4.15-4.78-8.47-6.84-12.84-2.08-4.43-3.97-9.03-5.6-13.66-1.66-4.7-3.1-9.57-4.28-14.45L117.27,241.34c-.39-1.59-1.16-3.06-2.24-4.28L28.51,139.48,511.9,22.37l6.5,53.75c.05.39.12.78.21,1.16l97.71,403.28c1.18,4.88,2.12,9.86,2.8,14.8.67,4.87,1.1,9.82,1.27,14.72.18,4.83.11,9.72-.2,14.54Z" fill="#263238"></path><path d="M243.37,327.85c8.31,5.07,17.64,7.67,27.13,7.67,4.13,0,8.29-.49,12.41-1.49,13.57-3.29,25.05-11.67,32.33-23.59,2.88-4.71,1.39-10.87-3.33-13.74-4.72-2.88-10.87-1.38-13.74,3.33-4.49,7.36-11.58,12.54-19.96,14.57s-17.05.67-24.41-3.81c-4.72-2.88-10.87-1.38-13.74,3.33-2.88,4.72-1.38,10.87,3.33,13.74Z" fill="#263238"></path><path d="M593.48,498.86c-.28-1.99-.61-4.01-.99-5.99-.9-4.72-5.02-8.13-9.82-8.13h-49.93l-8.32-34.36,39.95-9.68c5.37-1.3,8.67-6.71,7.36-12.07-1.3-5.37-6.71-8.66-12.07-7.36l-39.95,9.68-11.96-49.37,39.95-9.68c5.37-1.3,8.67-6.71,7.36-12.07-1.3-5.37-6.7-8.66-12.07-7.36l-39.95,9.68-11.96-49.37,39.95-9.68c5.37-1.3,8.67-6.71,7.36-12.07-1.3-5.37-6.71-8.67-12.07-7.36l-39.95,9.68-11.96-49.37,39.95-9.68c5.37-1.3,8.67-6.71,7.36-12.07-1.3-5.37-6.71-8.67-12.07-7.36l-39.95,9.68-11.96-49.37,39.95-9.68c5.37-1.3,8.67-6.71,7.36-12.07-1.3-5.37-6.71-8.66-12.07-7.36l-39.95,9.68-11.96-49.37,39.95-9.68c5.37-1.3,8.67-6.71,7.36-12.07-1.3-5.37-6.71-8.66-12.07-7.36l-49.67,12.03c-5.37,1.3-8.67,6.71-7.36,12.07l33.34,137.6s0,0,0,.01c0,0,0,.01,0,.02l16.66,68.78s0,0,0,0c0,0,0,0,0,.01l16.67,68.79s0,0,0,0c0,0,0,0,0,0l16.67,68.8h0l9.54,39.37H215.58c-3.07,0-5.96,1.41-7.86,3.82s-2.58,5.56-1.86,8.54l18.97,78.31c.99,4.08,2.19,8.1,3.54,11.91,1.33,3.81,2.88,7.6,4.62,11.31,1.72,3.64,3.62,7.18,5.62,10.51,2,3.34,4.2,6.66,6.58,9.87l.28.38c22.18,30.62,60.03,48.7,98.24,48.7,9.25,0,18.53-1.06,27.61-3.26,2.02-.49,4.06-1.05,6.01-1.64l.98-.29,123.62-29.96c3.99-.97,8-2.15,11.95-3.53,3.84-1.36,7.63-2.92,11.23-4.61,3.64-1.7,7.2-3.6,10.58-5.63,3.36-2.02,6.67-4.22,9.84-6.56,3.1-2.3,6.15-4.79,9.09-7.44,2.77-2.51,5.55-5.28,8.26-8.24,2.64-2.89,5.15-5.93,7.44-9,2.3-3.06,4.49-6.3,6.53-9.64,2.05-3.37,3.94-6.81,5.58-10.22,1.67-3.44,3.22-7.04,4.6-10.73,1.34-3.62,2.53-7.36,3.53-11.11.99-3.7,1.82-7.56,2.47-11.5.63-3.85,1.08-7.8,1.34-11.73,0-.02,0-.04,0-.06.25-4.1.3-8.12.16-11.91-.14-4.03-.49-8.11-1.04-12.15Z" fill="#263238"></path><path d="M401.19,252.86c-.94-3.88-2.61-7.46-4.89-10.59-2.29-3.14-5.19-5.82-8.6-7.89-6.82-4.16-14.85-5.42-22.61-3.54-16.02,3.88-25.89,20.08-22.01,36.1,1.88,7.76,6.67,14.32,13.49,18.48,4.75,2.9,10.08,4.38,15.51,4.38,2.36,0,4.74-.28,7.09-.85,16.02-3.88,25.9-20.07,22.02-36.09ZM365.58,266.54c-6.9,1.67-13.84-2.57-15.51-9.46-1.67-6.9,2.56-13.84,9.46-15.51,6.89-1.67,13.83,2.57,15.5,9.46,1.67,6.89-2.56,13.84-9.45,15.51Z" fill="#263238"></path><path d="M224.15,295.75c-1.88-7.76-6.67-14.33-13.49-18.48-6.81-4.16-14.84-5.41-22.6-3.53-7.76,1.88-14.33,6.67-18.49,13.48-4.15,6.82-5.41,14.85-3.53,22.61s6.67,14.32,13.49,18.48c4.75,2.9,10.08,4.39,15.51,4.39,2.36,0,4.74-.29,7.09-.86,7.77-1.88,14.33-6.67,18.49-13.48,4.16-6.82,5.41-14.85,3.53-22.61ZM188.54,309.43c-6.9,1.67-13.84-2.57-15.51-9.46-1.67-6.89,2.57-13.84,9.46-15.51,6.89-1.67,13.84,2.57,15.51,9.46,1.67,6.89-2.57,13.84-9.46,15.51Z" fill="#263238"></path></g></svg>